<?xml version="1.0" encoding="UTF-8" ?>
<!DOCTYPE svg PUBLIC "-//W3C//DTD SVG 1.1//EN" "http://www.w3.org/Graphics/SVG/1.1/DTD/svg11.dtd">
<svg width="940pt" height="940pt" viewBox="0 0 940 940" version="1.1" xmlns="http://www.w3.org/2000/svg">
<g id="#000000ff">
<path fill="#000000" opacity="1.00" d=" M 459.03 0.00 L 480.79 0.00 C 502.91 0.86 525.02 2.74 546.84 6.61 C 586.40 13.75 625.48 24.50 662.18 41.07 C 699.68 57.64 734.54 79.83 766.47 105.46 C 797.04 130.10 824.36 158.75 847.54 190.44 C 870.10 220.71 889.17 253.64 903.55 288.56 C 916.63 319.60 925.44 352.25 931.93 385.24 C 936.92 410.69 939.39 436.59 940.00 462.51 L 940.00 480.78 C 938.93 512.95 934.95 545.05 927.27 576.33 C 915.66 628.58 894.78 678.79 865.53 723.64 C 842.49 759.26 815.03 792.11 783.29 820.31 C 733.25 864.52 674.29 899.13 610.19 918.35 C 567.10 931.27 522.39 939.28 477.34 940.00 L 461.66 940.00 C 428.96 939.21 396.33 935.17 364.53 927.47 C 327.31 919.22 291.09 906.41 257.12 889.08 C 225.90 873.20 196.69 853.53 169.62 831.35 C 140.26 807.16 114.02 779.20 91.64 748.45 C 54.28 698.31 27.29 640.44 13.45 579.43 C 5.41 547.25 1.10 514.21 0.00 481.07 L 0.00 462.58 C 0.67 427.94 5.25 393.41 13.63 359.79 C 27.52 299.10 54.41 241.53 91.59 191.62 C 118.87 154.10 151.93 120.77 189.31 93.30 C 215.85 73.46 244.37 56.19 274.58 42.54 C 303.82 29.12 334.58 19.13 365.98 12.19 C 396.46 4.85 427.72 1.09 459.03 0.00 M 442.62 24.86 C 357.59 29.79 274.28 60.03 205.81 110.66 C 140.03 158.98 87.86 225.66 57.06 301.26 C 28.78 370.08 18.47 446.07 26.80 519.98 C 31.78 565.05 43.76 609.34 62.19 650.77 C 92.38 719.02 140.14 779.31 199.44 824.58 C 259.70 870.71 331.92 901.12 407.11 911.57 C 477.46 921.53 550.20 914.63 617.26 891.09 C 705.43 860.45 783.20 801.11 836.34 724.41 C 866.06 681.77 888.20 633.87 901.39 583.59 C 920.20 511.99 920.86 435.68 903.24 363.77 C 885.34 290.06 848.00 221.25 796.19 165.88 C 742.65 108.32 673.65 65.25 598.31 42.77 C 548.02 27.64 495.02 21.65 442.62 24.86 Z" />
</g>
<g id="#dcdcdcff">
<path fill="#dcdcdc" opacity="1.00" d=" M 442.62 24.86 C 495.02 21.65 548.02 27.64 598.31 42.77 C 673.65 65.25 742.65 108.32 796.19 165.88 C 848.00 221.25 885.34 290.06 903.24 363.77 C 920.86 435.68 920.20 511.99 901.39 583.59 C 888.20 633.87 866.06 681.77 836.34 724.41 C 783.20 801.11 705.43 860.45 617.26 891.09 C 550.20 914.63 477.46 921.53 407.11 911.57 C 331.92 901.12 259.70 870.71 199.44 824.58 C 140.14 779.31 92.38 719.02 62.19 650.77 C 43.76 609.34 31.78 565.05 26.80 519.98 C 18.47 446.07 28.78 370.08 57.06 301.26 C 87.86 225.66 140.03 158.98 205.81 110.66 C 274.28 60.03 357.59 29.79 442.62 24.86 Z" />
</g>
</svg>
